<?xml version="1.0" encoding="UTF-8"?> <svg xmlns="http://www.w3.org/2000/svg" width="38" height="39" viewBox="0 0 38 39" fill="none"> <path d="M26.6562 3.125H11.3438C11.2578 3.125 11.1875 3.19531 11.1875 3.28125V4.53125C11.1875 4.61719 11.2578 4.6875 11.3438 4.6875H26.6562C26.7422 4.6875 26.8125 4.61719 26.8125 4.53125V3.28125C26.8125 3.19531 26.7422 3.125 26.6562 3.125ZM26.6562 15.3125H11.3438C11.2578 15.3125 11.1875 15.3828 11.1875 15.4688V16.7188C11.1875 16.8047 11.2578 16.875 11.3438 16.875H26.6562C26.7422 16.875 26.8125 16.8047 26.8125 16.7188V15.4688C26.8125 15.3828 26.7422 15.3125 26.6562 15.3125ZM26.6562 9.21875H11.3438C11.2578 9.21875 11.1875 9.28906 11.1875 9.375V10.625C11.1875 10.7109 11.2578 10.7812 11.3438 10.7812H26.6562C26.7422 10.7812 26.8125 10.7109 26.8125 10.625V9.375C26.8125 9.28906 26.7422 9.21875 26.6562 9.21875Z" fill="white"></path> <path d="M1.12 36V26.2H2.352L5.712 34.194L9.072 26.2H10.304V36H9.072V28.846L6.202 36H5.222L2.352 28.804V36H1.12ZM18.2057 32.402C18.2057 32.5793 18.1917 32.822 18.1637 33.13H13.1657C13.175 33.746 13.3617 34.2313 13.7257 34.586C14.0897 34.9313 14.5797 35.104 15.1957 35.104C16.0544 35.104 16.6237 34.7867 16.9037 34.152H18.1217C18.0097 34.7493 17.683 35.2347 17.1417 35.608C16.6004 35.9813 15.9517 36.168 15.1957 36.168C14.2064 36.168 13.4177 35.8647 12.8297 35.258C12.251 34.642 11.9617 33.8113 11.9617 32.766C11.9617 31.7393 12.251 30.918 12.8297 30.302C13.4084 29.686 14.1784 29.378 15.1397 29.378C16.0544 29.378 16.7917 29.658 17.3517 30.218C17.921 30.778 18.2057 31.506 18.2057 32.402ZM13.1657 32.192H17.0017C17.0017 31.6227 16.8337 31.1747 16.4977 30.848C16.171 30.5213 15.7137 30.358 15.1257 30.358C14.547 30.358 14.0804 30.526 13.7257 30.862C13.3804 31.198 13.1937 31.6413 13.1657 32.192ZM19.7805 36V29.546H20.9985V32.234H24.3725V29.546H25.5765V36H24.3725V33.256H20.9985V36H19.7805ZM33.1568 29.378C34.1741 29.378 34.9861 29.7047 35.5928 30.358C36.2088 31.002 36.5168 31.8047 36.5168 32.766C36.5168 33.7367 36.2088 34.5487 35.5928 35.202C34.9861 35.846 34.1741 36.168 33.1568 36.168C32.2328 36.168 31.4721 35.902 30.8748 35.37C30.2868 34.838 29.9368 34.1473 29.8248 33.298H28.9008V36H27.6828V29.546H28.9008V32.276H29.8248C29.9275 31.4267 30.2728 30.7313 30.8608 30.19C31.4581 29.6487 32.2235 29.378 33.1568 29.378ZM31.5748 34.432C31.9668 34.8613 32.4941 35.076 33.1568 35.076C33.8195 35.076 34.3421 34.8613 34.7248 34.432C35.1075 33.9933 35.2988 33.438 35.2988 32.766C35.2988 32.1033 35.1075 31.5573 34.7248 31.128C34.3421 30.6893 33.8195 30.47 33.1568 30.47C32.4941 30.47 31.9668 30.6893 31.5748 31.128C31.1921 31.5573 31.0008 32.108 31.0008 32.78C31.0008 33.4427 31.1921 33.9933 31.5748 34.432Z" fill="white"></path> </svg> 