<?xml version="1.0" encoding="utf-8"?>
<!-- Generator: Adobe Illustrator 24.2.0, SVG Export Plug-In . SVG Version: 6.00 Build 0)  -->
<svg version="1.1" id="Layer_1" xmlns="http://www.w3.org/2000/svg" xmlns:xlink="http://www.w3.org/1999/xlink" x="0px" y="0px"
	 viewBox="0 0 1000 1000" style="enable-background:new 0 0 1000 1000;" xml:space="preserve">
<style type="text/css">
	.st0{fill:#FBAD49;stroke:#000000;stroke-width:38.0086;}
	.st1{fill:#FBAD49;}
	.st2{fill:#FFFFFF;}
</style>
<g>
	<path id="base" d="M384.1,492.2h231.7v81.9c0,19.2-14.7,34-34,34H418.1c-19.2,0-34-14.7-34-34V492.2z"/>
	<g>
		<g id="svgstar" transform="translate(150, 150)">
			<path id="svgbar" class="st0" d="M281.1,329.2c-7.2-7.2-18.8-7.2-26,0c-7.2,7.2-7.2,18.8,0,26c7.2,7.2,18.8,7.2,26,0h137.8
				c7.2,7.2,18.8,7.2,26,0c7.2-7.2,7.2-18.8,0-26c-7.2-7.2-18.8-7.2-26,0H281.1z"/>
			<g transform="rotate(45)">
				<path id="svgbar_1_" class="st0" d="M310.5,284.3c0-10.1-8.2-18.4-18.4-18.4c-10.1,0-18.4,8.2-18.4,18.4
					c0,10.1,8.2,18.4,18.4,18.4l97.4,97.4c0,10.1,8.2,18.4,18.4,18.4s18.4-8.2,18.4-18.4c0-10.1-8.2-18.4-18.4-18.4L310.5,284.3z"/>
			</g>
			<g transform="rotate(90)">
				<path id="svgbar_2_" class="st0" d="M363,273.3c7.2-7.2,7.2-18.8,0-26s-18.8-7.2-26,0c-7.2,7.2-7.2,18.8,0,26v137.8
					c-7.2,7.2-7.2,18.8,0,26c7.2,7.2,18.8,7.2,26,0c7.2-7.2,7.2-18.8,0-26V273.3z"/>
			</g>
			<g transform="rotate(135)">
				<path id="svgbar_3_" class="st0" d="M407.9,302.6c10.1,0,18.4-8.2,18.4-18.4c0-10.1-8.2-18.4-18.4-18.4
					c-10.1,0-18.4,8.2-18.4,18.4l-97.4,97.4c-10.1,0-18.4,8.2-18.4,18.4c0,10.1,8.2,18.4,18.4,18.4c10.1,0,18.4-8.2,18.4-18.4
					L407.9,302.6z"/>
			</g>
		</g>
	</g>
	<g>
		<g id="svgstar_1_" transform="translate(150, 150)">
			<path id="svgbar_4_" class="st1" d="M281.1,329.2c-7.2-7.2-18.8-7.2-26,0c-7.2,7.2-7.2,18.8,0,26c7.2,7.2,18.8,7.2,26,0h137.8
				c7.2,7.2,18.8,7.2,26,0c7.2-7.2,7.2-18.8,0-26c-7.2-7.2-18.8-7.2-26,0H281.1z"/>
			<g transform="rotate(45)">
				<path id="svgbar_5_" class="st1" d="M310.5,284.3c0-10.1-8.2-18.4-18.4-18.4c-10.1,0-18.4,8.2-18.4,18.4
					c0,10.1,8.2,18.4,18.4,18.4l97.4,97.4c0,10.1,8.2,18.4,18.4,18.4s18.4-8.2,18.4-18.4c0-10.1-8.2-18.4-18.4-18.4L310.5,284.3z"/>
			</g>
			<g transform="rotate(90)">
				<path id="svgbar_6_" class="st1" d="M363,273.3c7.2-7.2,7.2-18.8,0-26s-18.8-7.2-26,0c-7.2,7.2-7.2,18.8,0,26v137.8
					c-7.2,7.2-7.2,18.8,0,26c7.2,7.2,18.8,7.2,26,0c7.2-7.2,7.2-18.8,0-26V273.3z"/>
			</g>
			<g transform="rotate(135)">
				<path id="svgbar_7_" class="st1" d="M407.9,302.6c10.1,0,18.4-8.2,18.4-18.4c0-10.1-8.2-18.4-18.4-18.4
					c-10.1,0-18.4,8.2-18.4,18.4l-97.4,97.4c-10.1,0-18.4,8.2-18.4,18.4c0,10.1,8.2,18.4,18.4,18.4c10.1,0,18.4-8.2,18.4-18.4
					L407.9,302.6z"/>
			</g>
		</g>
	</g>
	<g>
		<path id="base_1_" d="M384.1,492.2h231.7v81.9c0,19.2-14.7,34-34,34H418.1c-19.2,0-34-14.7-34-34V492.2z"/>
	</g>
	<g>
		<g id="SVG" transform="scale(2) translate(20,79)">
			<path id="S" class="st2" d="M189.5,196c-2.7-2.7-4.4-6.5-4.4-10.6c0-8.3,6.7-15,15-15c8.3,0,15,6.7,15,15h-8.8
				c0-3.4-2.8-6.2-6.2-6.2c-3.4,0-6.2,2.8-6.2,6.2c0,1.7,0.7,3.3,1.8,4.4h0c1.1,1.1,2.1,1.5,4.4,1.8l0,0c4.1,0.4,7.9,1.7,10.6,4.4
				l0,0c2.7,2.7,4.4,6.5,4.4,10.6c0,8.3-6.7,15-15,15c-8.3,0-15-6.7-15-15h8.8c0,3.4,2.8,6.2,6.2,6.2c3.4,0,6.2-2.8,6.2-6.2
				c0-1.7-0.7-3.3-1.8-4.4h0c-1.1-1.1-2.7-1.5-4.4-1.8v0C196,199.8,192.2,198.7,189.5,196L189.5,196L189.5,196z"/>
			<path id="V" class="st2" d="M245.1,170.4l-10.6,51.3h-8.8l-10.6-51.3h8.8l6.2,30l6.2-30H245.1z"/>
			<path id="G" class="st2" d="M260.1,191.6h15v15h0c0,8.3-6.7,15-15,15c-8.3,0-15-6.7-15-15l0,0v-21.2h0c0-8.3,6.7-15,15-15
				c8.3,0,15,6.7,15,15h-8.8c0-3.4-2.8-6.2-6.2-6.2c-3.4,0-6.2,2.8-6.2,6.2v21.2l0,0c0,3.4,2.8,6.2,6.2,6.2c3.4,0,6.2-2.8,6.2-6.2v0
				v-6.2h-6.2V191.6L260.1,191.6z"/>
		</g>
	</g>
	<path id="base_3_" d="M140.5,475.8h718.9v254c0,59.7-45.7,105.4-105.4,105.4H246c-59.7,0-105.4-45.7-105.4-105.4V475.8z"/>
	<g>
		<g id="svgstar_3_" transform="translate(150, 150)">
			<path id="svgbar_15_" class="st0" d="M136.2,285.5c-22.2-22.2-58.3-22.2-80.5,0c-22.2,22.2-22.2,58.3,0,80.5
				c22.2,22.2,58.3,22.2,80.5,0h427.5c22.2,22.2,58.3,22.2,80.5,0s22.2-58.3,0-80.5c-22.2-22.2-58.3-22.2-80.5,0H136.2z"/>
			<g transform="rotate(45)">
				<path id="svgbar_14_" class="st0" d="M227.3,146.1c0-31.5-25.5-56.9-56.9-56.9c-31.5,0-56.9,25.5-56.9,56.9
					c0,31.5,25.5,56.9,56.9,56.9l302.3,302.3c0,31.5,25.5,56.9,56.9,56.9c31.5,0,56.9-25.5,56.9-56.9c0-31.5-25.5-56.9-56.9-56.9
					L227.3,146.1z"/>
			</g>
			<g transform="rotate(90)">
				<path id="svgbar_13_" class="st0" d="M390.3,112c22.2-22.2,22.2-58.3,0-80.5C368,9.2,332,9.2,309.7,31.5
					c-22.2,22.2-22.2,58.3,0,80.5v427.5c-22.2,22.2-22.2,58.3,0,80.5c22.2,22.2,58.3,22.2,80.5,0c22.2-22.2,22.2-58.3,0-80.5V112z"
					/>
			</g>
			<g transform="rotate(135)">
				<path id="svgbar_12_" class="st0" d="M529.6,203.1c31.5,0,56.9-25.5,56.9-56.9c0-31.5-25.5-56.9-56.9-56.9
					c-31.5,0-56.9,25.5-56.9,56.9L170.4,448.4c-31.5,0-56.9,25.5-56.9,56.9c0,31.5,25.5,56.9,56.9,56.9c31.5,0,56.9-25.5,56.9-56.9
					L529.6,203.1z"/>
			</g>
		</g>
	</g>
	<g>
		<g id="svgstar_2_" transform="translate(150, 150)">
			<path id="svgbar_11_" class="st1" d="M136.2,285.5c-22.2-22.2-58.3-22.2-80.5,0c-22.2,22.2-22.2,58.3,0,80.5
				c22.2,22.2,58.3,22.2,80.5,0h427.5c22.2,22.2,58.3,22.2,80.5,0s22.2-58.3,0-80.5c-22.2-22.2-58.3-22.2-80.5,0H136.2z"/>
			<g transform="rotate(45)">
				<path id="svgbar_10_" class="st1" d="M227.3,146.1c0-31.5-25.5-56.9-56.9-56.9c-31.5,0-56.9,25.5-56.9,56.9
					c0,31.5,25.5,56.9,56.9,56.9l302.3,302.3c0,31.5,25.5,56.9,56.9,56.9c31.5,0,56.9-25.5,56.9-56.9c0-31.5-25.5-56.9-56.9-56.9
					L227.3,146.1z"/>
			</g>
			<g transform="rotate(90)">
				<path id="svgbar_9_" class="st1" d="M390.3,112c22.2-22.2,22.2-58.3,0-80.5C368,9.2,332,9.2,309.7,31.5
					c-22.2,22.2-22.2,58.3,0,80.5v427.5c-22.2,22.2-22.2,58.3,0,80.5c22.2,22.2,58.3,22.2,80.5,0c22.2-22.2,22.2-58.3,0-80.5V112z"
					/>
			</g>
			<g transform="rotate(135)">
				<path id="svgbar_8_" class="st1" d="M529.6,203.1c31.5,0,56.9-25.5,56.9-56.9c0-31.5-25.5-56.9-56.9-56.9
					c-31.5,0-56.9,25.5-56.9,56.9L170.4,448.4c-31.5,0-56.9,25.5-56.9,56.9c0,31.5,25.5,56.9,56.9,56.9c31.5,0,56.9-25.5,56.9-56.9
					L529.6,203.1z"/>
			</g>
		</g>
	</g>
	<g>
		<path id="base_2_" d="M140.5,475.8h718.9v254c0,59.7-45.7,105.4-105.4,105.4H246c-59.7,0-105.4-45.7-105.4-105.4V475.8z"/>
	</g>
	<g>
		<g id="SVG_1_" transform="scale(2) translate(20,79)">
			<path id="S_1_" class="st2" d="M104.2,248.6c-8.4-8.4-13.6-20.1-13.6-32.9c0-25.7,20.9-46.6,46.6-46.6
				c25.7,0,46.6,20.9,46.6,46.6h-27.3c0-10.7-8.6-19.3-19.3-19.3c-10.7,0-19.3,8.6-19.3,19.3c0,5.3,2.2,10.1,5.6,13.6h0
				c3.5,3.5,6.4,4.5,13.6,5.7l0,0c12.9,1.3,24.5,5.2,32.9,13.6l0,0c8.4,8.4,13.6,20.1,13.6,32.9c0,25.7-20.9,46.6-46.6,46.6
				c-25.7,0-46.6-20.9-46.6-46.6h27.3c0,10.7,8.6,19.3,19.3,19.3c10.7,0,19.3-8.6,19.3-19.3c0-5.3-2.2-10.1-5.6-13.6h0
				c-3.5-3.5-8.5-4.7-13.6-5.7v0C124.7,260.3,112.6,257,104.2,248.6L104.2,248.6L104.2,248.6z"/>
			<path id="V_1_" class="st2" d="M276.9,169.1l-32.9,159h-27.3l-32.9-159H211l19.3,93.1l19.3-93.1H276.9z"/>
			<path id="G_1_" class="st2" d="M323.5,235H370v46.6h0c0,25.7-20.9,46.6-46.6,46.6c-25.7,0-46.6-20.9-46.6-46.6l0,0v-65.9h0
				c0-25.7,20.9-46.6,46.6-46.6c25.7,0,46.6,20.9,46.6,46.6h-27.3c0-10.6-8.6-19.3-19.3-19.3c-10.7,0-19.3,8.6-19.3,19.3v65.9l0,0
				c0,10.7,8.6,19.3,19.3,19.3c10.6,0,19.3-8.6,19.3-19.3v0v-19.3h-19.3V235L323.5,235z"/>
		</g>
	</g>
</g>
</svg>
