<?xml version="1.0" encoding="UTF-8"?> <svg xmlns="http://www.w3.org/2000/svg" width="78" height="71" viewBox="0 0 78 71" fill="none"> <path d="M72.2255 0.00717362C71.2622 0.077257 70.3167 0.303247 69.4258 0.676327H69.4138C68.5586 1.0154 64.4927 2.7258 58.3113 5.31839L36.1602 14.6475C20.2655 21.3391 4.64096 27.9286 4.64096 27.9286L4.827 27.8566C4.827 27.8566 3.74975 28.2107 2.62449 28.9818C1.92932 29.4242 1.33112 30.003 0.86609 30.6832C0.313963 31.4934 -0.130139 32.7327 0.0348993 34.014C0.304961 36.1805 1.70928 37.4798 2.71752 38.1969C3.73775 38.9231 4.70997 39.2622 4.70997 39.2622H4.73398L19.3863 44.1983C20.0435 46.3078 23.8514 58.8267 24.7666 61.7104C25.3067 63.4328 25.8318 64.51 26.489 65.3322C26.8071 65.7523 27.1791 66.1034 27.6262 66.3854C27.8587 66.5206 28.1065 66.6274 28.3644 66.7035L28.2144 66.6675C28.2594 66.6795 28.2954 66.7155 28.3284 66.7275C28.4484 66.7605 28.5294 66.7725 28.6825 66.7965C31.002 67.4987 32.8654 66.0584 32.8654 66.0584L32.9705 65.9743L41.6215 58.0975L56.1208 69.2211L56.4509 69.3621C59.4726 70.6884 62.5333 69.9503 64.1506 68.648C65.78 67.3366 66.4132 65.6593 66.4132 65.6593L66.5182 65.3892L77.7228 7.98901C78.0408 6.57268 78.1218 5.24638 77.7708 3.95908C77.4087 2.65626 76.5728 1.53575 75.4272 0.817359C74.4653 0.23257 73.3498 -0.0496939 72.2255 0.00717362ZM71.9224 6.15859C71.9104 6.34763 71.9464 6.32663 71.8624 6.68971V6.72272L60.7629 63.5258C60.7148 63.6068 60.6338 63.7838 60.4118 63.9609C60.1777 64.1469 59.9917 64.2639 59.0165 63.8769L41.2824 50.2807L30.5699 60.045L32.8204 45.6717L61.7951 18.6655C62.9894 17.5552 62.5903 17.3212 62.5903 17.3212C62.6743 15.9588 60.7869 16.9221 60.7869 16.9221L24.2505 39.5563L24.2385 39.4962L6.72644 33.5999V33.5879L6.68143 33.5789C6.71213 33.5687 6.74219 33.5567 6.77145 33.5429L6.86747 33.4949L6.96049 33.4619C6.96049 33.4619 22.5971 26.8723 38.4917 20.1808C46.4496 16.829 54.4674 13.4533 60.6338 10.8487C66.8002 8.25907 71.3583 6.35963 71.6164 6.25761C71.8624 6.16159 71.7454 6.16159 71.9224 6.16159V6.15859Z" fill="white"></path> </svg> 