<?xml version="1.0" encoding="UTF-8"?> <svg xmlns="http://www.w3.org/2000/svg" width="20" height="20" viewBox="0 0 20 20" fill="none"> <path d="M18.3937 5.49235C17.2468 5.49235 16.1468 5.03672 15.3358 4.22569C14.5248 3.41467 14.0691 2.31469 14.0691 1.16773C14.0691 0.97657 13.9932 0.793239 13.858 0.658069C13.7228 0.522898 13.5395 0.44696 13.3484 0.44696H9.74451C9.55335 0.44696 9.37002 0.522898 9.23485 0.658069C9.09968 0.793239 9.02374 0.97657 9.02374 1.16773V12.7C9.02304 13.0222 8.93597 13.3383 8.77161 13.6154C8.60724 13.8925 8.37158 14.1205 8.08918 14.2756C7.80678 14.4306 7.48796 14.5072 7.16593 14.4972C6.84391 14.4872 6.53045 14.391 6.25821 14.2187C5.98596 14.0464 5.7649 13.8043 5.61802 13.5176C5.47115 13.2308 5.40385 12.9099 5.42313 12.5883C5.44241 12.2667 5.54756 11.9561 5.72763 11.689C5.90771 11.4218 6.15612 11.2078 6.44699 11.0693C6.571 11.0123 6.67599 10.9208 6.74948 10.8058C6.82296 10.6908 6.86182 10.5571 6.86143 10.4206V6.6726C6.86322 6.56576 6.84062 6.45991 6.79534 6.36312C6.75007 6.26632 6.68331 6.18112 6.60016 6.11401C6.51949 6.04754 6.42532 5.99942 6.3242 5.97297C6.22308 5.94652 6.11741 5.94238 6.01453 5.96084C4.73227 6.19053 3.54214 6.78121 2.58381 7.66357C1.62549 8.54593 0.938745 9.68334 0.604187 10.9423C0.269628 12.2013 0.301138 13.5296 0.695018 14.7713C1.0889 16.013 1.8288 17.1165 2.82789 17.9525C3.82697 18.7884 5.04378 19.322 6.33549 19.4906C7.62719 19.6592 8.9402 19.4559 10.1204 18.9044C11.3006 18.353 12.299 17.4763 12.9984 16.3774C13.6979 15.2784 14.0693 14.0027 14.0691 12.7V9.4836C15.4041 10.1799 16.8881 10.5417 18.3937 10.5377C18.5849 10.5377 18.7682 10.4618 18.9034 10.3266C19.0386 10.1915 19.1145 10.0081 19.1145 9.81696V6.21311C19.1145 6.02195 19.0386 5.83862 18.9034 5.70345C18.7682 5.56828 18.5849 5.49235 18.3937 5.49235ZM17.673 9.06015C16.266 8.93528 14.9186 8.43426 13.7718 7.6096C13.6633 7.53471 13.5366 7.49061 13.405 7.48197C13.2735 7.47333 13.1421 7.50048 13.0247 7.56054C12.9074 7.6206 12.8085 7.71133 12.7386 7.82308C12.6686 7.93483 12.6303 8.06343 12.6276 8.19523V12.7C12.6271 13.691 12.3542 14.6627 11.8387 15.509C11.3233 16.3553 10.5852 17.0437 9.70497 17.4989C8.82477 17.9541 7.83639 18.1586 6.84783 18.09C5.85928 18.0215 4.90858 17.6825 4.09964 17.1102C3.2907 16.5379 2.65464 15.7542 2.26096 14.8448C1.86728 13.9354 1.73114 12.9353 1.86741 11.9538C2.00368 10.9723 2.40711 10.0471 3.03363 9.2794C3.66015 8.51166 4.48564 7.93091 5.4199 7.6006V10.0062C4.95387 10.3175 4.57648 10.7444 4.32454 11.245C4.07259 11.7457 3.95468 12.3031 3.9823 12.8629C4.00992 13.4227 4.18214 13.9658 4.48215 14.4392C4.78217 14.9126 5.19974 15.3002 5.69416 15.5642C6.18858 15.8282 6.74297 15.9595 7.30327 15.9455C7.86357 15.9314 8.41067 15.7724 8.89121 15.4839C9.37175 15.1954 9.76934 14.7873 10.0452 14.2995C10.3211 13.8116 10.4658 13.2605 10.4653 12.7V1.8885H12.6726C12.8341 3.15826 13.4129 4.33839 14.318 5.24348C15.2231 6.14857 16.4032 6.72733 17.673 6.88884V9.06015Z" fill="white"></path> </svg> 