<?xml version="1.0" encoding="UTF-8"?> <svg xmlns="http://www.w3.org/2000/svg" width="200" height="28" viewBox="0 0 200 28" fill="none"> <path fill-rule="evenodd" clip-rule="evenodd" d="M89.0813 24.1929L97.8527 3.6241C97.9313 3.43917 98.0627 3.28139 98.2306 3.17041C98.3984 3.05944 98.5953 3.00017 98.7967 3H102.008C102.209 2.99995 102.406 3.05882 102.573 3.16931C102.741 3.27979 102.873 3.43702 102.952 3.62146L111.731 24.1903C111.798 24.3459 111.825 24.5157 111.809 24.6843C111.794 24.8528 111.737 25.015 111.644 25.1563C111.55 25.2975 111.423 25.4134 111.273 25.4936C111.124 25.5737 110.957 25.6157 110.787 25.6157H107.852C107.648 25.616 107.448 25.5555 107.278 25.4419C107.109 25.3284 106.977 25.167 106.9 24.9783L105.362 21.2152C105.285 21.0272 105.153 20.8663 104.984 20.7528C104.815 20.6393 104.616 20.5785 104.413 20.5779H96.2697C96.0659 20.5778 95.8666 20.6383 95.6975 20.7519C95.5283 20.8654 95.3971 21.0268 95.3205 21.2152L93.7826 24.9783C93.706 25.1668 93.5747 25.3281 93.4056 25.4417C93.2365 25.5552 93.0372 25.6158 92.8333 25.6157H90.0253C89.8559 25.6155 89.6892 25.5735 89.54 25.4935C89.3909 25.4135 89.2639 25.2979 89.1704 25.157C89.0769 25.0161 89.0199 24.8543 89.0043 24.6861C88.9888 24.5179 89.0152 24.3485 89.0813 24.1929ZM98.8922 16.2171H101.809C101.978 16.2176 102.144 16.1765 102.293 16.0976C102.442 16.0187 102.569 15.9044 102.663 15.7647C102.757 15.6251 102.815 15.4645 102.832 15.297C102.849 15.1296 102.825 14.9606 102.761 14.805L100.602 9.55568C100.586 9.50076 100.553 9.4525 100.507 9.41817C100.461 9.38384 100.405 9.36528 100.348 9.36528C100.29 9.36528 100.235 9.38384 100.189 9.41817C100.143 9.4525 100.109 9.50076 100.093 9.55568L97.9296 14.8023C97.8651 14.9579 97.84 15.127 97.8566 15.2945C97.8732 15.4621 97.9311 15.623 98.0249 15.7629C98.1188 15.9028 98.2459 16.0175 98.3949 16.0967C98.5438 16.176 98.7101 16.2173 98.8789 16.2171H98.8922ZM114.526 4.18211V24.587C114.526 24.8586 114.634 25.1192 114.826 25.3116C115.019 25.5039 115.28 25.6123 115.552 25.613H118.45C118.723 25.613 118.985 25.5049 119.178 25.3125C119.371 25.1201 119.479 24.8591 119.479 24.587V19.8983C119.479 19.6269 119.587 19.3666 119.78 19.1746C119.972 18.9827 120.233 18.8749 120.505 18.8749H123.247C125.884 18.8713 128.06 18.1811 129.775 16.8042C131.49 15.4273 132.347 13.4881 132.347 10.9864C132.356 8.63454 131.584 6.74197 130.032 5.30866C128.48 3.87535 126.378 3.15869 123.727 3.15869H115.552C115.28 3.15869 115.019 3.26651 114.826 3.45844C114.634 3.65037 114.526 3.91068 114.526 4.18211ZM119.78 14.1773C119.587 13.9854 119.479 13.7251 119.479 13.4537V8.63542C119.479 8.36399 119.587 8.10369 119.78 7.91176C119.972 7.71983 120.233 7.612 120.505 7.612H123.308C124.574 7.61024 125.56 7.90378 126.267 8.49262C126.974 9.08146 127.328 9.92152 127.328 11.0128C127.344 11.4802 127.259 11.9455 127.079 12.3772C126.898 12.8089 126.627 13.1968 126.283 13.5145C125.586 14.1562 124.627 14.4771 123.403 14.4771H120.505C120.233 14.4771 119.972 14.3693 119.78 14.1773ZM134.728 24.5872V4.17967C134.728 4.04517 134.754 3.91194 134.806 3.78761C134.857 3.66329 134.933 3.55033 135.028 3.45523C135.123 3.36012 135.237 3.28475 135.361 3.23345C135.486 3.18214 135.619 3.1559 135.754 3.15625H143.926C146.578 3.15625 148.68 3.87291 150.232 5.30622C151.784 6.73953 152.556 8.6321 152.549 10.9839C152.549 13.4856 151.691 15.4249 149.975 16.8018C148.258 18.1787 146.082 18.8698 143.447 18.8751H140.707C140.435 18.8751 140.174 18.9829 139.982 19.1748C139.789 19.3668 139.681 19.6271 139.681 19.8985V24.5872C139.681 24.8586 139.573 25.1189 139.381 25.3108C139.188 25.5028 138.927 25.6106 138.655 25.6106H135.754C135.482 25.6099 135.222 25.5018 135.029 25.3101C134.837 25.1183 134.729 24.8584 134.728 24.5872ZM139.679 13.4565C139.679 13.728 139.787 13.9883 139.979 14.1802C140.172 14.3721 140.433 14.4799 140.705 14.4799H143.603C144.824 14.4799 145.784 14.1591 146.483 13.5174C146.827 13.1995 147.099 12.8112 147.279 12.379C147.459 11.9468 147.544 11.4808 147.527 11.013C147.527 9.9235 147.174 9.08431 146.467 8.49547C145.76 7.90663 144.774 7.6131 143.51 7.61486H140.705C140.433 7.61486 140.172 7.72268 139.979 7.91461C139.787 8.10654 139.679 8.36685 139.679 8.63828V13.4565ZM154.928 4.17625V24.5864C154.928 24.8578 155.036 25.1181 155.228 25.3101C155.421 25.502 155.682 25.6098 155.954 25.6098H170.082C170.354 25.6091 170.614 25.5011 170.806 25.3093C170.999 25.1175 171.107 24.8576 171.108 24.5864V22.1376C171.106 21.8661 170.997 21.6062 170.805 21.4145C170.612 21.2228 170.351 21.1149 170.079 21.1142H160.907C160.635 21.1142 160.374 21.0064 160.182 20.8144C159.989 20.6225 159.881 20.3622 159.881 20.0908V4.17625C159.881 3.90482 159.773 3.64451 159.58 3.45258C159.388 3.26065 159.127 3.15283 158.855 3.15283H155.954C155.682 3.15283 155.421 3.26065 155.228 3.45258C155.036 3.64451 154.928 3.90482 154.928 4.17625ZM173.552 24.5871V4.17429C173.552 3.90287 173.661 3.64256 173.853 3.45063C174.046 3.2587 174.307 3.15088 174.579 3.15088H189.51C189.782 3.15088 190.043 3.2587 190.235 3.45063C190.428 3.64256 190.536 3.90287 190.536 4.17429V6.5226C190.536 6.79403 190.428 7.05434 190.235 7.24627C190.043 7.43819 189.782 7.54601 189.51 7.54601H179.497C179.225 7.54671 178.964 7.65512 178.772 7.84747C178.579 8.03982 178.471 8.3004 178.471 8.57207V11.0791C178.471 11.3505 178.579 11.6108 178.772 11.8027C178.964 11.9946 179.225 12.1025 179.497 12.1025H188.057C188.329 12.1025 188.59 12.2103 188.782 12.4022C188.975 12.5941 189.083 12.8545 189.083 13.1259V15.4715C189.083 15.606 189.057 15.7393 189.005 15.8636C188.954 15.9879 188.878 16.1009 188.783 16.196C188.688 16.2911 188.574 16.3665 188.45 16.4178C188.325 16.4691 188.191 16.4953 188.057 16.495H179.497C179.225 16.495 178.964 16.6028 178.772 16.7947C178.579 16.9866 178.471 17.2469 178.471 17.5184V20.1867C178.472 20.4583 178.581 20.7186 178.773 20.9105C178.966 21.1023 179.228 21.2101 179.5 21.2101H189.669C189.805 21.2083 189.939 21.2335 190.066 21.2841C190.192 21.3348 190.306 21.4099 190.403 21.5051C190.5 21.6003 190.576 21.7137 190.629 21.8388C190.681 21.9638 190.708 22.098 190.708 22.2335V24.5871C190.707 24.8583 190.599 25.1182 190.407 25.31C190.215 25.5018 189.954 25.6098 189.682 25.6105H174.579C174.307 25.6105 174.046 25.5027 173.853 25.3108C173.661 25.1188 173.552 24.8585 173.552 24.5871ZM68.7958 4.38055V24.7775C68.7965 25.0491 68.9052 25.3094 69.098 25.5013C69.2909 25.6931 69.5522 25.8009 69.8246 25.8009H84.9147C85.1868 25.8009 85.4478 25.6931 85.6403 25.5011C85.8327 25.3092 85.9408 25.0489 85.9408 24.7775V22.4477C85.9408 22.1762 85.8327 21.9159 85.6403 21.724C85.4478 21.5321 85.1868 21.4243 84.9147 21.4243H74.7432C74.4711 21.4243 74.2101 21.3164 74.0176 21.1245C73.8252 20.9326 73.7171 20.6723 73.7171 20.4008V17.7326C73.7171 17.4611 73.8252 17.2008 74.0176 17.0089C74.2101 16.817 74.4711 16.7091 74.7432 16.7091H83.3025C83.4373 16.7091 83.5707 16.6827 83.6952 16.6312C83.8197 16.5798 83.9328 16.5044 84.0281 16.4094C84.1234 16.3144 84.199 16.2015 84.2506 16.0774C84.3021 15.9532 84.3287 15.8201 84.3287 15.6857V13.3401C84.3287 13.0684 84.2207 12.8078 84.0283 12.6155C83.8359 12.4231 83.5749 12.3147 83.3025 12.314H74.7432C74.4711 12.314 74.2101 12.2062 74.0176 12.0143C73.8252 11.8223 73.7171 11.562 73.7171 11.2906V8.77304C73.7171 8.50161 73.8252 8.2413 74.0176 8.04938C74.2101 7.85745 74.4711 7.74962 74.7432 7.74962H84.7556C85.028 7.74892 85.289 7.64051 85.4813 7.44817C85.6737 7.25582 85.7817 6.99523 85.7817 6.72356V4.37791C85.781 4.10624 85.6723 3.84593 85.4795 3.65408C85.2866 3.46223 85.0253 3.35449 84.7529 3.35449H69.8219C69.5495 3.35519 69.2885 3.4636 69.0962 3.65595C68.9038 3.8483 68.7958 4.10888 68.7958 4.38055ZM7.327 8.94474V24.7958C7.3284 25.0668 7.4375 25.3261 7.63036 25.517C7.82323 25.7078 8.08411 25.8146 8.35581 25.8139H11.2487C11.3834 25.8139 11.5169 25.7875 11.6414 25.736C11.7659 25.6846 11.879 25.6092 11.9743 25.5142C12.0696 25.4191 12.1452 25.3063 12.1967 25.1821C12.2483 25.058 12.2748 24.9249 12.2748 24.7905V8.9368C12.2748 8.66538 12.3829 8.40506 12.5754 8.21314C12.7678 8.02121 13.0288 7.91338 13.301 7.91338H18.103C18.3751 7.91338 18.6361 7.80556 18.8286 7.61363C19.021 7.4217 19.1291 7.1614 19.1291 6.88997V4.38035C19.1291 4.10892 19.021 3.84861 18.8286 3.65669C18.6361 3.46476 18.3751 3.35693 18.103 3.35693H1.49884C1.36342 3.35693 1.22933 3.38366 1.1043 3.43559C0.979285 3.48751 0.865807 3.56361 0.770415 3.65949C0.675022 3.75536 0.599602 3.86912 0.548503 3.9942C0.497403 4.11929 0.471638 4.25322 0.472687 4.38828V6.8979C0.473389 7.16957 0.582091 7.42987 0.774954 7.62173C0.967818 7.81358 1.2291 7.92132 1.5015 7.92132H6.30084C6.4357 7.92097 6.56929 7.9472 6.69395 7.99851C6.81861 8.04982 6.93187 8.12519 7.02723 8.22029C7.12258 8.31539 7.19816 8.42836 7.2496 8.55268C7.30105 8.677 7.32735 8.81024 7.327 8.94474ZM23.8596 23.6216C25.5761 25.3194 27.9678 26.1683 31.0348 26.1683C34.123 26.17 36.5403 25.3141 38.2868 23.6005C40.0333 21.8869 40.9066 19.3631 40.9066 16.0293V4.38036C40.9066 4.10894 40.7985 3.84863 40.606 3.6567C40.4136 3.46477 40.1526 3.35695 39.8804 3.35695H36.9796C36.7079 3.35835 36.4478 3.46715 36.2565 3.6595C36.0651 3.85185 35.958 4.11204 35.9587 4.38301V16.2197C35.9587 17.9721 35.5354 19.3085 34.6886 20.2288C33.8419 21.149 32.6469 21.6092 31.1037 21.6092C29.5605 21.6074 28.3646 21.1314 27.5161 20.1812C26.6676 19.2309 26.2434 17.8575 26.2434 16.0611V4.38036C26.2434 4.10894 26.1353 3.84863 25.9428 3.6567C25.7504 3.46477 25.4894 3.35695 25.2172 3.35695H22.3164C22.1807 3.35625 22.0463 3.38238 21.9208 3.43383C21.7954 3.48527 21.6814 3.56102 21.5855 3.65668C21.4895 3.75235 21.4136 3.86603 21.362 3.99115C21.3104 4.11628 21.2842 4.25036 21.2849 4.38565V16.1933C21.2849 19.4478 22.1432 21.9239 23.8596 23.6216ZM44.6718 24.7905V4.383C44.6718 4.11157 44.7799 3.85126 44.9723 3.65933C45.1647 3.4674 45.4258 3.35958 45.6979 3.35958H48.7313C48.8895 3.35968 49.0455 3.39625 49.1872 3.46644C49.3289 3.53662 49.4524 3.63852 49.548 3.76418L57.9482 14.7705C58.0783 14.9411 58.2589 15.0667 58.4644 15.1294C58.6699 15.1922 58.89 15.189 59.0936 15.1204C59.2972 15.0517 59.474 14.921 59.5992 14.7468C59.7243 14.5725 59.7914 14.3634 59.791 14.1491V4.38035C59.791 4.10892 59.8991 3.84861 60.0916 3.65669C60.284 3.46476 60.545 3.35693 60.8172 3.35693H63.6517C63.9241 3.35693 64.1854 3.46467 64.3783 3.65652C64.5711 3.84838 64.6798 4.10868 64.6805 4.38035V24.7773C64.6805 25.0489 64.5725 25.3095 64.3801 25.5019C64.1878 25.6942 63.9268 25.8026 63.6544 25.8033H60.9736C60.8155 25.8026 60.6597 25.7658 60.5182 25.6957C60.3766 25.6255 60.253 25.5239 60.1569 25.3987L51.4067 13.9402C51.2766 13.7696 51.0961 13.644 50.8906 13.5813C50.685 13.5185 50.465 13.5217 50.2614 13.5903C50.0578 13.659 49.8809 13.7897 49.7558 13.9639C49.6306 14.1382 49.5635 14.3473 49.5639 14.5616V24.7799C49.5639 25.0513 49.4558 25.3116 49.2633 25.5036C49.0709 25.6955 48.8099 25.8033 48.5378 25.8033H45.7006C45.4298 25.804 45.1697 25.698 44.977 25.5083C44.7843 25.3185 44.6745 25.0605 44.6718 24.7905Z" fill="white"></path> <circle cx="197" cy="23" r="3" fill="#E78F68"></circle> </svg> 